#!OML:ASF E:\Style6\Style6.ASF
:FULLY-SPECIFIED
:DEGREES
3788
root 0.852847 17.5721 -1.72407 19.1597 0.0732345 1.07725
lowerback 25.1192 -1.46745 4.04257
upperback 21.8508 -1.48237 5.18223
thorax 10.4278 -0.736391 3.59272
lowerneck 10.7422 16.9895 -1.74692
upperneck 2.73705 22.0016 -9.82246
head 0.147694 11.1065 -3.40222
rclavicle 3.33958e-014 -1.05356e-014
rhumerus 19.1158 -6.54845 -79.0943
rradius 43.3448
rwrist 20.9527
rhand -5.35211 9.52417
rfingers 7.12502
rthumb 20.4551 -19.4184
lclavicle 3.33958e-014 -1.05356e-014
lhumerus 77.1939 -14.6431 7.57642
lradius 31.8773
lwrist -29.4381
lhand -10.3423 14.4219
lfingers 7.12502
lthumb 15.654 43.8085
rfemur -44.9101 -5.48273 17.7552
rtibia 34.5982
rfoot -3.7693 -9.8468
rtoes -10.088
lfemur -44.2546 2.45608 -22.4013
ltibia 36.9486
lfoot -5.55959 3.76508
ltoes -20.9869
3789
root 0.855003 17.57 -1.72193 19.1836 0.181865 1.05767
lowerback 25.142 -1.45052 3.93498
upperback 21.8648 -1.47737 5.25956
thorax 10.4359 -0.754765 3.73452
lowerneck 10.7289 17.0336 -1.90004
upperneck 2.66273 22.0401 -9.88508
head 0.118685 11.1302 -3.40559
rclavicle 1.90833e-014 5.74488e-014
rhumerus 19.1772 -6.49785 -78.9623
rradius 43.2688
rwrist 20.957
rhand -5.36828 9.55636
rfingers 7.12502
rthumb 20.4395 -19.3879
lclavicle 1.90833e-014 5.74488e-014
lhumerus 76.9968 -14.4815 9.07619
lradius 31.4278
lwrist -29.3695
lhand -9.19107 14.4899
lfingers 7.12502
lthumb 16.7625 43.7863
rfemur -44.9161 -5.54568 17.7877
rtibia 34.6131
rfoot -3.91899 -9.87998
rtoes -9.58015
lfemur -44.3101 2.38925 -22.367
ltibia 36.9864
lfoot -5.57087 3.75838
ltoes -20.7814
3790
root 0.857179 17.5685 -1.72009 19.1711 0.267034 1.01753
lowerback 25.1884 -1.42325 3.85206
upperback 21.8869 -1.45455 5.32434
thorax 10.4414 -0.760204 3.84723
lowerneck 10.6572 17.0319 -1.99353
upperneck 2.676 22.0351 -9.95592
head 0.133141 11.1277 -3.40672
rclavicle 1.59028e-014 -4.19436e-014
rhumerus 19.2795 -6.58106 -78.9214
rradius 43.1056
rwrist 21.114
rhand -5.32418 9.58068
rfingers 7.12502
rthumb 20.4819 -19.359
lclavicle 1.59028e-014 -4.19436e-014
lhumerus 76.7822 -14.2964 10.8232
lradius 30.9388
lwrist -29.4357
lhand -8.24791 14.4862
lfingers 7.12502
lthumb 17.6703 43.7032
rfemur -44.8685 -5.58688 17.8309
rtibia 34.5962
rfoot -3.9988 -9.89022
rtoes -8.98308
lfemur -44.3463 2.35525 -22.312
ltibia 37.0536
lfoot -5.60663 3.72567
ltoes -20.3211
3791
root 0.857091 17.5671 -1.71819 19.2056 0.399124 0.860794
lowerback 25.2302 -1.40482 3.85522
upperback 21.8786 -1.42891 5.41547
thorax 10.4138 -0.756224 3.94055
lowerneck 10.6596 17.0228 -2.05915
upperneck 2.63694 22.014 -10.0386
head 0.12174 11.1212 -3.42625
rclavicle 3.49861e-014 6.1822e-014
rhumerus 19.3367 -6.60017 -78.8639
rradius 43.0043
rwrist 21.1946
rhand -5.26052 9.52791
rfingers 7.12502
rthumb 20.5431 -19.4052
lclavicle 3.49861e-014 6.1822e-014
lhumerus 76.5564 -14.1277 12.5922
lradius 30.4404
lwrist -29.4681
lhand -7.33894 14.5058
lfingers 7.12502
lthumb 18.5448 43.6419
rfemur -44.8688 -5.62071 18.0297
rtibia 34.5791
rfoot -3.9231 -9.91969
rtoes -9.578
lfemur -44.4565 2.38987 -22.1459
ltibia 37.1259
lfoot -5.6378 3.59559
ltoes -20.1145
3792
root 0.85503 17.561 -1.71737 19.3076 0.661384 0.57282
lowerback 25.2495 -1.43261 4.02022
upperback 21.8414 -1.43586 5.55015
thorax 10.366 -0.752137 3.99746
lowerneck 10.6593 17.0241 -2.11495
upperneck 2.59664 22.008 -10.1201
head 0.11217 11.1222 -3.44656
rclavicle -4.29375e-014 3.08116e-014
rhumerus 19.3645 -6.50922 -78.7481
rradius 42.9459
rwrist 21.1959
rhand -5.2343 9.42407
rfingers 7.12502
rthumb 20.5683 -19.5063
lclavicle -4.29375e-014 3.08116e-014
lhumerus 76.2987 -13.9572 14.4751
lradius 29.9623
lwrist -29.5241
lhand -6.33035 14.7088
lfingers 7.12502
lthumb 19.5148 43.7494
rfemur -44.954 -5.6563 18.3954
rtibia 34.5918
rfoot -3.90316 -10.0314
rtoes -9.9214
lfemur -44.6612 2.37952 -21.8056
ltibia 37.1697
lfoot -5.65555 3.44279
ltoes -20.1457
3793
root 0.854394 17.5585 -1.71423 19.4214 0.842151 0.57219
lowerback 25.1666 -1.43336 3.91514
upperback 21.8407 -1.45684 5.61046
thorax 10.4053 -0.780329 4.12218
lowerneck 10.5944 17.0029 -2.01278
upperneck 2.61894 22.0017 -10.3325
head 0.167109 11.1239 -3.51534
rclavicle -2.06736e-014 -6.0033e-014
rhumerus 19.4052 -6.42833 -78.6512
rradius 42.8969
rwrist 21.197
rhand -5.21952 9.32067
rfingers 7.12502
rthumb 20.5825 -19.6081
lclavicle -2.06736e-014 -6.0033e-014
lhumerus 76.0597 -13.7127 16.4333
lradius 29.4921
lwrist -29.562
lhand -5.30965 14.8907
lfingers 7.12502
lthumb 20.4959 43.8289
rfemur -45.0637 -5.74266 18.4282
rtibia 34.634
rfoot -4.00078 -10.1298
rtoes -9.65422
lfemur -44.7988 2.29757 -21.785
ltibia 37.1683
lfoot -5.65608 3.34025
ltoes -19.9466
3794
root 0.854727 17.5626 -1.70922 19.5086 0.952936 0.908918
lowerback 25.0493 -1.40978 3.5039
upperback 21.8586 -1.49197 5.58229
thorax 10.4801 -0.843913 4.3198
lowerneck 10.5781 16.9871 -1.98629
upperneck 2.4927 21.9808 -10.4844
head 0.148279 11.1238 -3.57119
rclavicle 1.59028e-015 1.72943e-014
rhumerus 19.4758 -6.39969 -78.6274
rradius 42.8006
rwrist 21.2354
rhand -5.25427 9.28195
rfingers 7.12502
rthumb 20.5491 -19.6505
lclavicle 1.59028e-015 1.72943e-014
lhumerus 75.8672 -13.4056 18.4957
lradius 28.9904
lwrist -29.3795
lhand -4.36302 14.763
lfingers 7.12502
lthumb 21.4053 43.6006
rfemur -45.1434 -5.86966 18.0546
rtibia 34.6979
rfoot -4.08401 -10.2511
rtoes -9.77383
lfemur -44.8216 2.15217 -22.1534
ltibia 37.1203
lfoot -5.67461 3.26655
ltoes -20.0184
3795
root 0.856205 17.5657 -1.70606 19.5574 1.12168 1.00958
lowerback 24.9806 -1.40976 3.38402
upperback 21.8669 -1.50998 5.5891
thorax 10.5226 -0.866557 4.39493
lowerneck 11.0642 17.0231 -2.19969
upperneck 1.69128 21.9169 -10.5718
head -0.214163 11.1401 -3.67713
rclavicle -1.11319e-014 -2.48481e-014
rhumerus 19.51 -6.42853 -78.6113
rradius 42.7336
rwrist 21.2115
rhand -5.25449 9.16345
rfingers 7.12502
rthumb 20.5489 -19.769
lclavicle -1.11319e-014 -2.48481e-014
lhumerus 75.7408 -13.1468 20.7953
lradius 28.4518
lwrist -29.0594
lhand -3.51994 14.6526
lfingers 7.12502
lthumb 22.2149 43.396
rfemur -45.1749 -5.95044 17.9479
rtibia 34.7697
rfoot -4.10429 -10.4276
rtoes -10.2953
lfemur -44.8124 2.02257 -22.2417
ltibia 37.0294
lfoot -5.66692 3.17203
ltoes -20.1706
3796
root 0.859262 17.5656 -1.70453 19.5564 1.24183 0.981608
lowerback 25.0102 -1.38192 3.45134
upperback 21.8612 -1.45888 5.59385
thorax 10.4991 -0.831302 4.35626
lowerneck 12.0631 16.9995 -2.28629
upperneck 0.272286 21.7095 -10.9356
head -0.834007 11.1327 -3.98928
rclavicle -1.59028e-014 -1.45113e-014
rhumerus 19.4557 -6.55694 -78.5381
rradius 42.7205
rwrist 21.0783
rhand -5.18564 9.07713
rfingers 7.12502
rthumb 20.615 -19.8482
lclavicle -1.59028e-014 -1.45113e-014
lhumerus 75.667 -13.0141 23.2385
lradius 27.8948
lwrist -29.1132
lhand -3.2402 14.8876
lfingers 7.12502
lthumb 22.4834 43.5988
rfemur -45.1622 -5.98319 17.9705
rtibia 34.8144
rfoot -4.13239 -10.4948
rtoes -10.2398
lfemur -44.7884 1.97748 -22.2131
ltibia 36.9498
lfoot -5.60363 3.11252
ltoes -20.5233
